<svg viewBox="0 0 480.44 55.08" xmlns:xlink="http://www.w3.org/1999/xlink" xmlns="http://www.w3.org/2000/svg" data-name="Layer 1" id="Layer_1">
  <defs>
    <style>
      .cls-1 { fill: none; }
      .cls-2 { fill: #1e363e; }
      .cls-3 { fill: #9b9c9d; }
      .cls-4 { fill: #a72b24; }
      .cls-5 { clip-path: url(#clippath); }
    </style>
    <clipPath id="clippath">
      <rect height="55.07" width="480.44" y="0" class="cls-1"></rect>
    </clipPath>
  </defs>
  <path d="M440.09,9.7h-10.11l-13.69,35.67h9.79l2.41-5.99h12.94l2.2,5.99h9.9l-13.42-35.67h0ZM437.62,27.29l1.54,4.72-4.02-2.92-4.02,2.92,1.54-4.72-4.02-2.92h4.97l1.54-4.72,1.54,4.72h4.97l-4.02,2.92h0Z" class="cls-2"></path>
  <g class="cls-5">
    <g>
      <path d="M338.82,9.7v21.13c0,1.5.05,3.8,1.82,5.51,1.07,1.01,2.78,1.71,4.39,1.71s3.26-.64,4.28-1.55c2.14-1.87,2.09-4.49,2.09-6.47V9.7h9.25v20.49c0,3.75-.16,7.65-4.01,11.55-3,3.05-6.74,4.44-11.77,4.44-5.62,0-9.63-1.93-11.82-4.28-3.1-3.37-3.48-7.92-3.48-11.72V9.7h9.25,0Z" class="cls-2"></path>
      <path d="M382.86,34.68c1.98,1.87,4.97,3.64,8.18,3.64,1.87,0,3-.59,3.58-1.23.54-.53.91-1.34.91-2.25,0-.69-.27-1.5-1.01-2.14-.91-.8-2.3-1.18-4.6-1.87l-2.41-.75c-1.5-.48-3.69-1.28-5.14-2.89-1.82-1.98-2.03-4.49-2.03-6.31,0-4.39,1.71-7.06,3.26-8.61,1.82-1.82,4.82-3.37,9.15-3.37,3.53,0,7.65,1.13,11.02,2.89l-3.69,7.22c-2.78-2.2-4.87-2.41-6.1-2.41-.91,0-2.14.21-3.05,1.07-.53.53-.91,1.13-.91,1.93,0,.64.11,1.13.48,1.61.27.32.91.96,3.1,1.6l2.83.86c2.25.69,4.6,1.5,6.47,3.53,1.82,1.93,2.3,3.9,2.3,6.37,0,3.26-.8,6.42-3.37,8.99-3.05,3.05-6.74,3.64-10.54,3.64-2.25,0-4.39-.21-7.01-1.18-.59-.21-2.83-1.07-5.4-2.83l3.96-7.49h0Z" class="cls-2"></path>
      <path d="M284.08,18.94l-2.3-11.29c.49,4.73-13.41,8.99-13.41,8.99,5.04,1.75,10.37,2.53,15.71,2.3" class="cls-3"></path>
      <path d="M270.49,1.47c-26.62-6.35-47.07,9.88-47.07,9.88l6.44,10.3c17.6-12.02,34.8-11.7,45.44-7.75,6.39-3.11,12.53-8.29-4.81-12.43" class="cls-2"></path>
      <path d="M272.99,31.3l-3.01-9.56c-16.61-3.62-28.78,4.4-35.18,7.83l6.15,9.84c11.2-7.35,22.88-9.82,32.04-8.11" class="cls-2"></path>
      <path d="M279.48,51.92l-3.09-9.8c-11.74-4.84-26.93,1.65-30.76,4.79l5.11,8.18c11.46-13.05,28.74-3.16,28.74-3.16" class="cls-4"></path>
      <path d="M310.42,11.44L309.8,0c-11.46,28.21-41.43,16.64-41.43,16.64l2.57,8.07c7.03,2.75,26.91,6.44,39.48-13.26" class="cls-4"></path>
      <path d="M311.32,31.46l-.44-8.37c-13.14,15.69-29.65,11.43-37.29,9.95l2.85,8.94c7.66,2.3,23.42,3.66,34.87-10.52" class="cls-4"></path>
      <polygon points="20.43 17.56 9.25 17.56 9.25 23.5 19.42 23.5 19.42 31.36 9.25 31.36 9.25 45.37 0 45.37 0 9.7 20.43 9.7 20.43 17.56" class="cls-2"></polygon>
      <polygon points="47.94 9.7 47.94 37.51 59.06 37.51 59.06 45.37 38.68 45.37 38.68 9.7 47.94 9.7" class="cls-2"></polygon>
      <path d="M142.19,25.16h18.4c0,7.06-1.44,12.09-5.72,16.04-3.75,3.48-8.02,4.49-12.57,4.49-6.42,0-10.8-2.35-13.69-5.3-2.68-2.68-5.14-7.01-5.14-12.89s2.25-10.32,5.35-13.37c2.94-2.94,7.54-5.24,13.85-5.24,3.32,0,6.9.75,9.63,2.41,2.78,1.71,5.08,4.55,6.37,7.33l-8.83,3.63c-.64-1.66-1.66-2.83-2.57-3.58-1.55-1.28-3.21-1.76-4.97-1.76-2.2,0-4.44.8-6.1,2.46-2.09,2.09-3.1,5.4-3.1,8.18,0,3.26,1.18,5.94,2.83,7.7,1.71,1.82,3.8,2.73,6.52,2.73,1.6,0,3.48-.27,5.14-1.66.86-.69,1.87-1.98,2.2-3.96h-7.59v-7.22.02Z" class="cls-2"></path>
      <path d="M182.8,34.68c1.98,1.87,4.97,3.64,8.18,3.64,1.87,0,3-.59,3.58-1.23.54-.53.91-1.34.91-2.25,0-.69-.27-1.5-1.01-2.14-.91-.8-2.3-1.18-4.6-1.87l-2.41-.75c-1.5-.48-3.69-1.28-5.14-2.89-1.82-1.98-2.03-4.49-2.03-6.31,0-4.39,1.71-7.06,3.26-8.61,1.82-1.82,4.82-3.37,9.15-3.37,3.53,0,7.65,1.13,11.02,2.89l-3.69,7.22c-2.78-2.2-4.87-2.41-6.1-2.41-.91,0-2.14.21-3.05,1.07-.54.53-.91,1.13-.91,1.93,0,.64.11,1.13.48,1.61.27.32.91.96,3.1,1.6l2.83.86c2.25.69,4.6,1.5,6.47,3.53,1.82,1.93,2.3,3.9,2.3,6.37,0,3.26-.8,6.42-3.37,8.99-3.05,3.05-6.74,3.64-10.53,3.64-2.25,0-4.39-.21-7.01-1.18-.59-.21-2.83-1.07-5.4-2.83l3.96-7.49h0Z" class="cls-2"></path>
      <path d="M98.97,9.7h-10.11l-13.69,35.67h9.79l2.41-5.99h12.94l2.2,5.99h9.9l-13.42-35.67h0ZM96.41,27.29l1.54,4.72-4.02-2.92-4.02,2.92,1.54-4.72-4.02-2.92h4.97l1.54-4.72,1.54,4.72h4.97l-4.02,2.92h0Z" class="cls-2"></path>
      <polygon points="467.33 37.72 467.33 45.28 465.56 45.28 465.56 37.72 463.52 37.72 463.52 36.2 469.37 36.2 469.37 37.72 467.33 37.72" class="cls-2"></polygon>
      <polygon points="471.43 36.2 472.71 36.2 475.12 41.97 477.63 36.2 478.92 36.2 480.44 45.28 478.64 45.28 477.83 39.69 475.39 45.28 474.79 45.28 472.46 39.69 471.54 45.28 469.74 45.28 471.43 36.2" class="cls-2"></polygon>
    </g>
  </g>
</svg>
